<svg version="1.1" id="katman_1" xmlns="http://www.w3.org/2000/svg" x="0" y="0" viewBox="0 0 595.3 841.9" xml:space="preserve"><style>.st0{fill:#328f03}.st3{fill:#fff}.st6,.st7{fill-rule:evenodd;clip-rule:evenodd;fill:#95c11f}.st7{fill:#2f932a}.st8{fill:#74c401}</style><path class="st0" d="M209.4 717.4c0 10.3-8.2 18.2-19.2 18.2s-19.2-7.9-19.2-18.2 8.2-18.2 19.2-18.2 19.2 7.9 19.2 18.2zm-8.7 0c0-6-4.5-10.7-10.5-10.7s-10.5 4.7-10.5 10.7 4.5 10.7 10.5 10.7 10.5-4.7 10.5-10.7zm43.8-15.1v3.4c0 1.3-1.1 2.4-2.4 2.4h-.4c-3.3 0-6 1.1-8.3 3.4-1 1-1.5 2.3-1.5 3.6v17.4c0 1.3-1.1 2.3-2.4 2.3h-3.9c-1.3 0-2.4-1-2.4-2.3v-29.8c0-1.3 1.1-2.3 2.4-2.3h3.8c1.3 0 2.4 1 2.4 2.3v5.3c0 .8 1.2 1.1 1.5.3l2.1-4.6c.8-1.7 2.4-3 4.2-3.4.8-.2 1.6-.2 2.5-.2 1.3-.1 2.4.9 2.4 2.2zm44.8 1v32.3c0 10.6-7.3 16.8-18.4 16.8-3.5 0-6.8-.7-9.5-1.7-1.3-.5-2.1-1.7-2.1-3v-1.2c0-2.2 2.3-3.8 4.4-3 2.3.9 4.7 1.3 7 1.3 6 0 10-3.3 10-9.2v-2.2l-.1-.1c-2.3 1.6-5.7 2.6-9 2.6-9.1 0-16.9-6.9-16.9-17.2 0-10.1 7.1-18.3 18.4-18.3 2.8 0 5.2.5 7.3 1.3.8.3 1.4 1 1.5 1.8l.3 2.2c.1.6.8.8 1.2.3l2.8-3.7c.3-.4.7-.7 1.2-.8.8-.3 1.9.6 1.9 1.8zm-8.7 8.4c0-1.4-.9-2.6-2.2-3.1-1.5-.5-3.3-.9-5.1-.9-6.3 0-10 4.7-10 10.4 0 6 4 10.5 10 10.5 1.8 0 3.7-.4 5.3-1.1 1.2-.5 1.9-1.7 1.9-3v-12.8zm51.6.8V732c0 1.6-1.3 3-3 3-1.6 0-2.9-1.2-3-2.8l-.1-2.8c-.1-.6-.9-.7-1.2-.2l-1.8 2.9c-1.1 1.8-2.9 3.1-5 3.5-1 .2-2 .3-3.2.3-2.8 0-5.7-.6-8-2.3-2.4-1.7-3.8-4.4-3.8-7.8 0-3.7 1.8-6.5 4.4-8.2 2.6-1.7 6.1-2.3 9.6-2.3 1.7 0 3.2.1 4.7.4 1 .2 1.9-.6 1.9-1.6 0-2.1-.6-3.6-1.7-4.6-1.3-1.1-3.2-1.6-5.8-1.6-2.9 0-5.6.7-7.8 1.7-1.2.5-2.5-.3-2.5-1.6v-3.6c0-.7.4-1.3 1-1.6 2.7-1.3 6.3-2.2 10.6-2.2 4.5 0 8.4 1 11 3.2 2.4 1.6 3.7 4.5 3.7 8.7zm-8.4 12.8v-2.8c0-.8-.5-1.4-1.3-1.5-1.3-.2-2.8-.4-4-.4-3.5 0-6.9 1.1-6.9 4.4 0 2.8 2.4 4.1 5.5 4.1 1.8 0 3.7-.5 5.2-1.1.9-.6 1.5-1.6 1.5-2.7zm56.3-12.2v18.5c0 1.8-1.5 3.2-3.2 3.2h-2.2c-1.8 0-3.2-1.4-3.2-3.2v-17c0-3.1-.4-4.8-1.4-6-1.1-1.3-2.7-1.9-4.7-1.9-3.5 0-7.1 2-9.3 4.4v20.5c0 1.8-1.5 3.2-3.2 3.2h-2.2c-1.8 0-3.2-1.4-3.2-3.2v-28.5c0-1.8 1.5-3.2 3.2-3.2h2.2c1.8 0 3.2 1.4 3.2 3.2v.6l.1.1c3-2.6 7-4.6 11.7-4.6 3.8 0 7.1 1.3 9.4 3.7 1.8 2.2 2.8 5.1 2.8 10.2zm13.4-23.7c-.6-3.5 2.2-6.5 5.8-6.3 2.4.2 4.5 2 4.9 4.3.6 3.5-2.2 6.5-5.8 6.3-2.4-.2-4.5-2-4.9-4.3zm9.7 13.8v28.5c0 1.8-1.5 3.2-3.2 3.2h-2.2c-1.8 0-3.2-1.4-3.2-3.2v-28.5c0-1.8 1.5-3.2 3.2-3.2h2.2c1.7 0 3.2 1.4 3.2 3.2zm45.2 31.6H444c-1 0-1.9-.4-2.5-1.2l-14.1-17.1-.1.1v15c0 1.8-1.4 3.2-3.2 3.2h-2.2c-1.8 0-3.2-1.4-3.2-3.2V684c0-1.8 1.4-3.2 3.2-3.2h2.2c1.8 0 3.2 1.4 3.2 3.2v31l.1.1 13.5-14.4c.4-.4.9-.6 1.4-.6h5c1.7 0 2.6 2 1.4 3.2L437 715.6l13.1 15.5c1.2 1.5.2 3.7-1.7 3.7z"/><path d="M249 418.7c-16.9 16.9-44.4 16.9-61.4 0-16.9-16.9-16.9-44.4 0-61.4 16.9-16.9 44.4-16.9 61.4 0 17 17 17 44.5 0 61.4zm0 0" fill-rule="evenodd" clip-rule="evenodd" fill="#ffba0d"/><path d="M175.2 392.7c5.5-51.1 80.8-51.1 86.3 0 2.7-25.6-17.3-48.1-43.1-48.1-26 .1-46 22.5-43.2 48.1zm0 0" fill-rule="evenodd" clip-rule="evenodd" fill="#f9cb64"/><path class="st3" d="M224.9 411c10.5-3.5 16.8-10.7 17.9-20.1.2-1.6 1.5-2.8 3.1-2.8 1.9 0 3.3 1.6 3.1 3.5-.7 6.2-3.1 11.7-7.2 16.1-3.7 4.1-8.9 7.2-14.9 9.2-1.7.6-3.6-.4-4-2.2-.4-1.5.5-3.1 2-3.7zm18.1-32.3c0-1.7 1.4-3.1 3.1-3.1 1.7 0 3.1 1.4 3.1 3.1 0 1.7-1.4 3.1-3.1 3.1-1.7 0-3.1-1.4-3.1-3.1z"/><path class="st0" d="M178 388.1c0-8.1 2.3-15.7 6.7-22.3.9-1.4.6-3.2-.7-4.2-1.4-1.1-3.5-.8-4.5.7-5 7.5-7.7 16.1-7.8 25.1-.3 23.9 19.3 45.4 43.2 47.1 27.1 1.9 49.8-19.6 49.9-46.3.1-24.9-19.8-45.6-44.7-46.6-11.7-.5-22.8 3.4-31.7 10.8-1.4 1.2-1.5 3.3-.2 4.6 1.1 1.2 3 1.3 4.2.2 7.7-6.5 17.6-9.8 27.8-9.3 21.2 1 38.1 18.7 38.3 39.9.2 22.4-18 40.6-40.3 40.6-22.1-.1-40.2-18.1-40.2-40.3zm0 0"/><path d="M418.1 261.2c-3-1.3-3.9-5.2-1.6-7.6 4.7-4.9 9.3-9.8 14.2-14.8 1.9-2 1.7-5.2-.5-7-11.5-9.3-23.5-14.9-37.1-13.4-12.2 1.3-24.1 5.3-36.8 8.8-3 .8-5.9-1.4-5.9-4.5v-16c0-2.7-2.3-4.9-5-4.7-34.2 1.8-59.6 32.8-54.2 66.1C296 297.5 317 316.4 348 319c21.5 1.8 38.2 8.2 50.2 19.1 1.3 1.1 2.9 1.8 4.6 1.8h6.5c6 0 9.2-7.1 5.2-11.5l-.1-.1c-.6-.7-1.2-1.3-1.8-2.1-2.6-3-.5-7.8 3.6-7.8h40.6c2.7 0 4.9-2.3 4.7-5-1.5-24.4-14.7-40.3-43.4-52.2z" fill="#d32624"/><path class="st0" d="M425.8 345.7h-15c-2.3 0-3.6 2.5-2.4 4.4 7.9 12.3 11.9 28.2 11.9 47.7 0 8 .2 16.1-.1 24.1-1.3 34.1-26.6 62-60 67.4-14 2.2-27.9 5.4-41.7 8.5-4.7 1-9.1-2.6-9.1-7.4v-65.7c0-5.5 5.7-9.1 10.7-6.8h.1c11.8 5.1 27.5-1.1 28.5-13.5 1.5-19.1.8-38.3.6-57.7-.1-5.3-5.5-8.9-10.4-6.9-6 2.5-9 6-10.3 11.9-.8 3.5 1.3 7.8 4.7 8.9 3.6 1.2 4.4 6.3.9 8.5-5.3 3.2-10.3 6.2-15.2 9.1-4.4 2.7-10.1.2-11.2-4.9-11.7-52.2-57-77.8-101.6-71.4-44.9 6.5-79.3 49.9-74.3 93.4 4.8 41 41.4 75.4 79.7 76.5 4.3.1 7.8-3.3 7.8-7.6v-2.6c0-3.7-2.6-6.8-6.2-7.4-4.1-.7-8-1.4-11.7-2.4-35.5-9.4-58.6-47.2-49.2-80.5 9.8-34.7 41.6-55.6 77.7-51.2 33.4 4.1 59.9 33.3 60.4 68.2.6 46.5.2 93 .2 139.5V545c0 4.2 3.4 7.6 7.6 7.6h4.1c3.3 0 6.3-2.2 7.2-5.4 7.6-25.9 18.4-37.1 47.3-39.1 41.9-2.8 77.2-36 81.1-77.6 1.5-15.9 1-32.1.4-48.2-.5-12.8-4.1-24.4-10-35-.6-1.1-1.5-1.6-2.5-1.6z"/><circle cx="376.2" cy="355.8" r="8.1" fill="#be1622"/><path class="st6" d="M176.5 350c-5.9 6.5-15.8 9.9-26.2 8-8.7-1.6-17-6.9-21-15-.9-1.9-.9-1.6.5-3 6-5.6 15.2-8.4 24.9-6.6.9.2 1.9.4 2.8.6-.4-.9-.8-1.7-1.1-2.6-3.3-9.3-2.1-18.9 2.5-25.7 1.2-1.7.9-1.6 2.9-1 7.9 2.4 14.9 9 18.2 18.3 3.7 9.9 2 20.2-3.5 27zm0 0"/><path class="st7" d="M174.4 348.2c-5.9 6.5-15.8 9.9-26.2 8-4.8-.9-9.5-2.9-13.4-5.9 4.2 4 9.8 6.7 15.5 7.7 10.4 1.9 20.3-1.5 26.2-8 5.5-6.8 7.2-17.2 3.6-27.1-2.1-5.9-5.7-10.7-10.1-14 3.4 3.2 6.2 7.3 7.9 12.2 3.6 9.9 1.9 20.3-3.5 27.1zm0 0"/><path class="st6" d="M176.5 350c-10 3.2-22.2.8-31.9-7.4-9-7.6-13.4-18.3-12.7-28.1.2-2.4 0-2.2 2.3-2.7 9.5-2.3 20.8.4 29.8 8 9.7 8.2 14.1 19.9 12.5 30.2zm0 0"/><path class="st7" d="M164.1 319.8c-9-7.6-20.2-10.3-29.8-8-2.2.5-2.2.3-2.3 2.3.1 0 .3-.1.4-.1 9.5-2.3 20.8.4 29.8 8 9.1 7.7 13.6 18.7 12.7 28.6.5-.1 1.1-.3 1.6-.5 1.6-10.4-2.8-22.1-12.4-30.3zm0 0"/><path class="st0" d="M176.9 350.9c-3 3.2-6.9 5.6-11.4 7-4.5 1.4-9.5 1.8-14.6 1-.5-.1-.8-.5-.7-1 .1-.5.5-.8 1-.7 4.9.8 9.6.4 13.8-.9 3.2-1 6.1-2.6 8.6-4.6-2 .4-4.1.6-6.2.6l-1.2.9c-.4.3-.9.2-1.2-.2-.2-.2-.2-.5-.1-.8-1.6-.1-3.1-.4-4.7-.8-.4-.1-.7-.2-1.1-.3l-2.7 1.9c-.4.3-.9.2-1.2-.2-.3-.4-.2-.9.2-1.2l1.6-1.1c-1.5-.5-2.9-1.1-4.4-1.8l-4.2 2.9c-.4.3-.9.2-1.2-.2-.3-.4-.2-.9.2-1.2l3.4-2.3c-1.2-.7-2.4-1.4-3.6-2.2l-4.9 3.2c-.4.3-.9.2-1.2-.2-.3-.4-.2-.9.2-1.2l3.3-2.3-8.1-1.5c-.5-.1-.8-.5-.7-1 .1-.5.5-.8 1-.7l7.4 1.3c-2.5-2.2-4.7-4.6-6.5-7.1-1.5.7-2.9 1.4-4.2 2.3-1.3.9-2.5 1.9-3.6 3.1 1.4 3.3 3.7 6.4 6.6 9 3 2.6 6.8 4.7 11 5.9.5.1.7.6.6 1.1-.1.5-.6.7-1.1.6-4.5-1.3-8.4-3.5-11.6-6.3-3.3-2.9-5.8-6.3-7.3-10.1-.1-.3 0-.7.2-.9 1.3-1.4 2.7-2.6 4.2-3.7 1.3-.9 2.7-1.7 4.2-2.4-1.2-1.8-2.1-3.7-2.9-5.7-2.2-5.5-3-11.2-2.2-16.6.1-.3.3-.6.6-.7 1.6-.5 3.2-.9 4.8-1.1 1.7-.2 3.4-.3 5.1-.3.5 0 .9.4.8.9 0 .5-.4.9-.9.9-1.6 0-3.2 0-4.8.3-1.4.2-2.7.5-4 .9-.7 4.9.1 10.2 2.2 15.2s5.5 9.8 10.1 13.7c4.4 3.7 9.5 6.4 15.1 7.7 4.7 1.1 9.6 1.2 14.3 0l-4-3.4-6.9.6c-.5 0-.9-.3-.9-.8s.3-.9.8-.9l5.2-.4-5.5-4.7-9.7.8c-.5 0-.9-.3-.9-.8s.3-.9.8-.9l7.9-.6-5.5-4.7-9.7.8c-.5 0-.9-.3-.9-.8s.3-.9.8-.9l7.9-.6-5.5-4.7-6.9.6c-.5 0-.9-.3-.9-.8s.3-.9.8-.9l5.2-.4-7.8-6.6c-.4-.3-.4-.9-.1-1.2.3-.4.9-.4 1.2-.1l7.8 6.6-.4-5.2c0-.5.3-.9.8-.9s.9.3.9.8l.6 6.9 5.5 4.7-.6-7.9c0-.5.3-.9.8-.9s.9.3.9.8l.8 9.7 5.5 4.7-.6-7.9c0-.5.3-.9.8-.9s.9.3.9.8l.8 9.7 5.5 4.7-.4-5.2c0-.5.3-.9.8-.9s.9.3.9.8l.6 6.9 4 3.4c.4-4.8-.4-9.7-2.3-14.1-2.2-5.3-5.7-10-10.1-13.7-5-4.3-11.2-7.2-17.7-8.2-.5-.1-.8-.5-.7-1 .1-.5.5-.8 1-.7 3 .4 5.9 1.3 8.8 2.5.4-1.6 1-3.1 1.7-4.5.8-1.7 1.8-3.4 3-4.8.2-.3.5-.4.9-.3 1.6.3 3.2.9 4.8 1.6 1.6.7 3.1 1.5 4.5 2.6.4.3.5.8.2 1.2-.3.4-.8.5-1.2.2-1.3-.9-2.7-1.7-4.2-2.4-1.3-.6-2.6-1-3.9-1.3-.9 1.2-1.8 2.6-2.4 4-.7 1.4-1.2 2.9-1.6 4.5 2.8 1.4 5.6 3.1 8.1 5.3L162 312c-.2-.5.1-1 .5-1.1.5-.2 1 .1 1.1.5l2.8 7.7 1.7-3.6c.2-.4.7-.6 1.2-.4.4.2.6.7.4 1.2l-2.5 5.2c.1.2 2.4 2.8 2.8 3.3l1.8-3.7c.2-.4.7-.6 1.2-.4.4.2.6.7.4 1.2l-2.2 4.6c.9 1.3 1.8 2.7 2.5 4l.8-1.8c.2-.4.7-.6 1.2-.4.4.2.6.7.4 1.2l-1.4 3c.2.3.3.7.5 1 .6 1.5 1.1 3 1.5 4.5.2-.1.5-.1.8 0 .4.2.6.7.4 1.2l-.7 1.4c.4 2.1.5 4.2.4 6.2 1.6-2.8 2.7-6 3.2-9.5.9-7.1-.9-14.5-4.7-20.5-1.3-2-2.8-3.8-4.5-5.4-.4-.3-.4-.9 0-1.2.3-.4.9-.4 1.2 0 1.8 1.7 3.4 3.6 4.8 5.7 4.1 6.3 6 14.2 5 21.7-.6 4.7-2.4 9.1-5.1 12.6-.2.3-.4.5-.6.7zm0 0"/><path class="st0" d="M178 315.6c-1.4-2.1-3-4.1-4.8-5.8-.3-.2-.6-.4-1-.4s-.7.2-.9.4c-.5.5-.5 1.4.1 1.9 1.7 1.6 3.2 3.3 4.4 5.3 3.9 6 5.6 13.4 4.7 20.2-.4 2.8-1.1 5.3-2.3 7.7 0-1.4-.2-2.9-.4-4.3l.6-1.2c.3-.7 0-1.5-.6-1.8-.2-.1-.4-.1-.6-.1-.4-1.4-.9-2.8-1.4-4.1-.1-.3-.2-.6-.4-.9l1.3-2.8c.3-.7 0-1.5-.6-1.8-.7-.3-1.5 0-1.8.6l-.4.9c-.6-1.1-1.2-2.1-1.9-3.1l2.1-4.3c.2-.3.2-.7.1-1-.1-.3-.4-.6-.7-.8-.3-.2-.7-.2-1-.1-.3.1-.6.4-.8.7L170 324c-.2-.2-.4-.5-.7-.8-.5-.6-1.3-1.4-1.5-1.8l2.4-5c.2-.3.2-.7.1-1-.1-.3-.4-.6-.7-.8-.7-.3-1.5 0-1.8.6l-1.2 2.6-2.4-6.7c-.2-.7-1-1.1-1.7-.8-.7.2-1 1-.8 1.7l2 5.5c-2.1-1.6-4.3-3-6.6-4.1.4-1.4.9-2.8 1.5-4.1.6-1.3 1.4-2.6 2.2-3.7 1.2.3 2.4.7 3.5 1.2 1.4.6 2.8 1.4 4.1 2.3.6.4 1.4.3 1.9-.3.2-.3.3-.6.2-1-.1-.3-.3-.7-.5-.9-1.5-1-3-1.9-4.6-2.6-1.6-.7-3.2-1.2-4.9-1.6-.5-.1-1 .1-1.3.5-1.2 1.5-2.2 3.1-3.1 4.9-.6 1.3-1.1 2.7-1.5 4.1-2.8-1.1-5.6-1.9-8.4-2.3-.4-.1-.7 0-1 .2-.3.2-.5.5-.5.9-.1.7.4 1.4 1.1 1.5 6.3.9 12.4 3.7 17.5 8.1 4.4 3.7 7.8 8.4 9.9 13.5 1.8 4.3 2.5 8.7 2.3 13l-3.2-2.7-.5-6.7c0-.4-.2-.7-.5-.9-.3-.2-.6-.3-1-.3-.7.1-1.3.7-1.2 1.4l.3 4.1-4.5-3.8-.8-9.5c-.1-.7-.7-1.3-1.4-1.2-.4 0-.7.2-.9.5-.2.3-.3.6-.3 1l.6 6.8-4.5-3.8-.8-9.5c-.1-.7-.7-1.3-1.4-1.2-.7.1-1.3.7-1.2 1.4l.6 6.8-4.5-3.8-.5-6.7c-.1-.7-.7-1.3-1.4-1.2-.7.1-1.3.7-1.2 1.4l.3 4.1-7-5.9c-.3-.2-.6-.3-1-.3s-.7.2-.9.5c-.2.3-.3.6-.3 1s.2.7.5.9l7 5.9-4.1.3c-.7.1-1.3.7-1.2 1.4 0 .4.2.7.5.9.3.2.6.3 1 .3l6.7-.5 4.5 3.8-6.8.6c-.7.1-1.3.7-1.2 1.4.1.7.7 1.3 1.4 1.2l9.5-.8 4.5 3.8-6.8.6c-.4 0-.7.2-.9.5-.2.3-.3.6-.3 1 .1.7.7 1.3 1.4 1.2l9.5-.8 4.5 3.8-4.1.3c-.7.1-1.3.7-1.2 1.4 0 .4.2.7.5.9.3.2.6.3 1 .3l6.7-.5 3.2 2.7c-4.2.9-8.7.9-13.2-.2-5.4-1.2-10.5-3.9-14.9-7.6-4.4-3.7-7.8-8.4-9.9-13.5-2-4.8-2.7-9.9-2.2-14.6 1.2-.3 2.4-.6 3.7-.8 1.5-.2 3.1-.3 4.7-.3.7 0 1.3-.6 1.4-1.3 0-.4-.1-.7-.4-1-.2-.3-.6-.4-.9-.4-1.7 0-3.5.1-5.2.3-1.7.2-3.3.6-4.9 1.1-.5.1-.9.6-.9 1.1-.8 5.5-.1 11.3 2.2 16.9.8 1.8 1.7 3.6 2.7 5.3-1.3.6-2.6 1.4-3.8 2.2-1.6 1.1-3 2.4-4.3 3.8-.4.4-.5.9-.3 1.4 1.5 3.8 4.1 7.4 7.4 10.3 3.3 2.9 7.4 5.1 11.8 6.4.7.2 1.4-.2 1.7-.9.2-.7-.2-1.4-.9-1.6-4-1.2-7.8-3.2-10.8-5.8-2.8-2.4-5-5.4-6.4-8.5 1-1 2.1-2 3.3-2.8 1.2-.8 2.4-1.5 3.8-2.1 1.5 2.1 3.2 4 5.2 5.8l-5.8-1.1c-.3-.1-.7 0-1 .2-.3.2-.5.5-.6.9-.1.7.3 1.4 1.1 1.6l7 1.3-2.4 1.7c-.3.2-.5.5-.6.9-.1.4 0 .7.2 1 .4.6 1.2.8 1.8.3l4.6-3.1c.9.6 1.8 1.2 2.7 1.7l-2.8 1.9c-.3.2-.5.5-.6.9-.1.4 0 .7.2 1 .4.6 1.3.8 1.8.3l3.9-2.7c1.1.5 2.2 1 3.4 1.4l-.9.6c-.6.4-.7 1.2-.3 1.8.4.6 1.2.8 1.9.3l2.6-1.8c.3.1.6.2.9.2 1.4.3 2.9.6 4.3.7 0 .2.1.4.2.6.4.6 1.2.8 1.9.3l1.1-.8c1.5 0 2.9-.1 4.3-.3-2.1 1.5-4.4 2.6-7 3.4-4.3 1.3-9 1.7-13.6.9-.4-.1-.7 0-1 .2-.3.2-.5.5-.5.9-.1.4 0 .7.2 1 .2.3.5.5.9.5 1.8.3 3.6.4 5.4.4 3.2 0 6.4-.5 9.5-1.4 4.6-1.4 8.6-3.9 11.6-7.2.3-.3.4-.5.7-.8 2.7-3.6 4.5-8 5.2-12.8.8-7.2-1.1-15.2-5.3-21.7zm4.2 21.9c-.6 4.7-2.3 9-5 12.4-.2.3-.4.5-.6.7-2.9 3.1-6.8 5.5-11.2 6.9-4.5 1.4-9.5 1.8-14.4 1-.1 0-.2-.1-.3-.2-.1-.1-.1-.2-.1-.3 0-.1.1-.2.2-.3.1-.1.2-.1.2-.1h.1c4.8.8 9.6.5 14-.9 3.3-1 6.2-2.6 8.7-4.7.2-.1.2-.4.1-.5-.1-.2-.3-.3-.5-.3-2 .4-4 .6-6.1.6-.1 0-.2 0-.3.1l-1.2.9c-.2.1-.5.1-.6-.1-.1-.1-.1-.2-.1-.4 0-.1 0-.3-.1-.4-.1-.1-.2-.2-.3-.2-1.6-.1-3.1-.4-4.6-.7-.4-.1-.7-.2-1.1-.3-.1 0-.3 0-.4.1l-2.7 1.9c-.2.1-.5.1-.6-.1-.1-.2-.1-.4.1-.6l1.6-1.1c.1-.1.2-.3.2-.4 0-.2-.1-.3-.3-.4-1.5-.5-2.9-1.1-4.3-1.8-.1-.1-.3-.1-.5 0l-4.2 2.9c-.2.1-.4.1-.6-.1-.1-.1-.1-.2-.1-.3 0-.1.1-.2.2-.3l3.4-2.3c.1-.1.2-.2.2-.4s-.1-.3-.2-.4c-1.2-.7-2.4-1.4-3.5-2.2-.2-.1-.4-.1-.5 0l-4.9 3.2c-.2.1-.5.1-.6-.1-.1-.1-.1-.2-.1-.3 0-.1.1-.2.2-.3l3.3-2.3c.2-.1.2-.3.2-.5s-.2-.3-.4-.4l-8.1-1.5c-.2 0-.4-.3-.3-.5 0-.1.1-.2.2-.3.1-.1.2-.1.3-.1l7.4 1.3c.2 0 .4-.1.5-.3.1-.2 0-.4-.1-.5-2.4-2.1-4.6-4.5-6.4-7.1-.1-.2-.4-.2-.6-.2-1.5.7-2.9 1.5-4.3 2.4-1.4.9-2.6 2-3.7 3.1-.1.1-.2.3-.1.5 1.4 3.4 3.7 6.5 6.7 9.1 3.1 2.7 7 4.8 11.2 6 .2.1.3.3.3.5-.1.2-.3.3-.5.3-4.3-1.2-8.2-3.4-11.5-6.2-3.2-2.8-5.7-6.3-7.2-10-.1-.2 0-.3.1-.5 1.2-1.3 2.6-2.6 4.2-3.6 1.3-.9 2.7-1.7 4.1-2.3.1-.1.2-.2.2-.3 0-.1 0-.3-.1-.4-1.1-1.8-2.1-3.7-2.9-5.6-2.2-5.4-3-11.1-2.2-16.4 0-.2.1-.3.3-.3 1.5-.5 3.1-.9 4.8-1.1 1.6-.2 3.3-.3 5-.3.1 0 .2 0 .3.1.1.1.1.2.1.3 0 .2-.2.4-.4.4-1.6 0-3.3 0-4.9.3-1.4.2-2.8.5-4.1.9-.2.1-.3.2-.3.4-.7 5 .1 10.3 2.2 15.4 2.2 5.2 5.7 10 10.2 13.9 4.5 3.8 9.8 6.5 15.3 7.8 4.9 1.2 10 1.1 14.5 0 .2 0 .3-.2.3-.3 0-.2 0-.3-.1-.4l-4-3.4c-.1-.1-.2-.1-.3-.1l-6.9.6c-.1 0-.2 0-.3-.1-.1-.1-.1-.2-.1-.3 0-.2.2-.4.4-.5l5.2-.4c.2 0 .3-.1.4-.3.1-.2 0-.4-.1-.5l-5.5-4.7c-.1-.1-.2-.1-.3-.1l-9.7.8c-.2 0-.4-.2-.5-.4 0-.1 0-.2.1-.3.1-.1.2-.1.3-.1l7.9-.6c.2 0 .3-.1.4-.3.1-.2 0-.4-.1-.5l-5.5-4.7c-.1-.1-.2-.1-.3-.1l-9.7.8c-.2 0-.4-.2-.5-.4 0-.2.2-.4.4-.5l7.9-.6c.2 0 .3-.1.4-.3.1-.2 0-.4-.1-.5l-5.5-4.7c-.1-.1-.2-.1-.3-.1l-6.9.6c-.1 0-.2 0-.3-.1-.1-.1-.1-.2-.1-.3 0-.2.2-.4.4-.5l5.2-.4c.2 0 .3-.1.4-.3.1-.2 0-.4-.1-.5l-7.8-6.6c-.1-.1-.1-.2-.1-.3 0-.1 0-.2.1-.3.1-.1.2-.1.3-.1.1 0 .2 0 .3.1l7.8 6.6c.1.1.3.1.5.1.2-.1.3-.3.2-.4l-.4-5.2c0-.2.2-.4.4-.5.2 0 .4.2.5.4l.6 6.9c0 .1.1.2.2.3l5.5 4.7c.1.1.3.1.5.1.2-.1.3-.3.2-.4l-.6-7.9c0-.2.2-.4.4-.5.2 0 .4.2.5.4l.8 9.7c0 .1.1.2.2.3l5.5 4.7c.1.1.3.1.5.1.2-.1.3-.3.2-.4l-.6-7.9c0-.1 0-.2.1-.3.1-.1.2-.1.3-.1.2 0 .4.2.5.4l.8 9.7c0 .1.1.2.2.3l5.5 4.7c.1.1.3.1.5.1.2-.1.3-.3.2-.4l-.4-5.2c0-.2.2-.4.4-.5.1 0 .2 0 .3.1.1.1.1.2.1.3l.6 6.9c0 .1.1.2.2.3l4 3.4c.1.1.3.1.5.1.2-.1.3-.2.3-.4.4-4.7-.4-9.6-2.3-14.3-2.2-5.2-5.7-10-10.2-13.9-5.3-4.5-11.5-7.4-18-8.3-.2 0-.4-.2-.4-.5 0-.1.1-.2.2-.3.1-.1.2-.1.3-.1 2.9.4 5.9 1.3 8.7 2.5.1.1.3 0 .4 0 .1-.1.2-.2.2-.3.4-1.6 1-3.1 1.6-4.5.8-1.7 1.8-3.3 3-4.7.1-.1.3-.2.4-.1 1.6.3 3.2.9 4.7 1.5 1.5.7 3 1.5 4.4 2.5.1.1.2.2.2.3 0 .1 0 .2-.1.3-.1.2-.4.2-.6.1-1.4-1-2.8-1.8-4.3-2.4-1.3-.6-2.6-1-4-1.3-.2 0-.4 0-.5.2-1 1.3-1.8 2.6-2.5 4.1-.7 1.5-1.3 3-1.7 4.6-.1.2 0 .4.2.5 2.8 1.4 5.5 3.1 8 5.2.2.1.4.1.6 0 .2-.1.2-.3.2-.5L163 312c-.1-.2 0-.5.3-.5.2-.1.5 0 .5.2l2.8 7.7c.1.2.2.3.4.3s.4-.1.4-.3l1.7-3.6c.1-.2.4-.3.6-.2.1 0 .2.1.2.2v.3l-2.5 5.2c-.1.1-.1.2 0 .3.1.2.1.3 1.8 2.2.5.6 1 1.1 1.1 1.3.1.1.2.2.4.2s.3-.1.4-.3l1.8-3.7c0-.1.1-.2.2-.2h.3c.1 0 .2.1.2.2v.3l-2.2 4.6c-.1.1-.1.3 0 .5.9 1.3 1.7 2.6 2.4 4 .1.2.2.2.4.2s.3-.1.4-.3l.8-1.7c.1-.2.4-.3.6-.2.2.1.3.4.2.6l-1.4 3c-.1.1-.1.3 0 .4.2.3.3.7.4 1 .6 1.5 1.1 3 1.5 4.5 0 .1.1.2.3.3.1.1.3.1.4 0 .1-.1.3-.1.4 0 .2.1.3.4.2.6l-.7 1.4c0 .1-.1.2 0 .3.4 2.1.5 4.1.4 6.1 0 .2.1.4.3.5.2.1.4 0 .5-.2 1.7-2.9 2.8-6.1 3.2-9.6.9-7.1-.8-14.7-4.8-20.8-1.3-2-2.9-3.9-4.6-5.5-.2-.2-.2-.4 0-.6.1-.1.2-.1.3-.1.1 0 .2 0 .3.1 1.8 1.7 3.4 3.6 4.7 5.6 3.7 6.1 5.5 13.9 4.6 21.2zm79.2 193.7V636s13.1-22 23.6-21.5c0 0 4.2-21.5 11-26.2v-26.2h59.5c10.5 0 19.1-8.5 19.1-19.1v-11.9H261.4z"/><path class="st8" d="M362.3 595.6c-25.5-12.9-49.7-13.1-60.1-5.3-7.9 5.9-11.8 13.8-11.8 13.8-2.3 4.7-3.2 8.9-3.6 11.8-1.5 1-3.9 2.8-6.6 5.3-10.5 9.9-20 27.3-16.1 44.7.7 3.3 1.4 6.5 3.9 9.9 0 0 4.5 9.2 27.1 9.2h57.3c5.7 0 11.2-1.8 15.8-5.1 3.8-2.8 7.3-7.1 7.8-13.1v-13.4h-73c-4 0-7.3-3.3-7.3-7.3v-23.2s18.5 12.7 39.5.2c20.9-12.6 27.1-27.5 27.1-27.5z"/><path d="M297.7 611.5c1.8-3.9 7.6-15.5 19-18.1 2.9-.7 5.3-.6 8.1-.4 5.5.3 14 1.5 24 6.5 0 0-8.7 8.3-18.1 8.1-9.4-.2-20.1-4.6-33 3.9z" fill="#308c03"/><path class="st8" d="M236.4 608c-1 3-2.8 9.6-.3 16.8.7 1.9 1.7 4.8 4.4 7.4 4.8 4.6 11 4.6 12.7 4.5 0 0 5.9-11 0-18.5S236.4 608 236.4 608z"/><path class="st3" d="M218.5 660c-.2-.4-.3-.9-.6-1.6.7.1 1.1.1 1.5.1-.1.5-.2 1-.4 1.5-.2.1-.4 0-.5 0zm-5-1.1c.7.3 1.5.6 2.2.8 0 .1-.1.3-.1.4-.8-.2-1.5-.3-2.3-.5 0-.2.1-.5.2-.7z"/><path class="st8" d="M237.6 679.4l-60.8-79.1h-38.7v-69.1H105v148.2h33.1v-75.9l57.6 75.9z"/><path class="st0" d="M222.4 548.5c1.7-7 3-14 3.5-21.2-.8 0-1.2.1-1.7.1-2.2.1-4.4 0-6.6.2-4.8.5-9.6 1.2-14.3 1.9-3.2.5-6.4 1-9.5 1.9-4.3 1.3-8.5 2.8-12.6 4.6-3.2 1.4-6.2 3.4-9.1 5.3-5 3.4-8.9 7.7-12.1 12.9-3.3 5.4-5.2 11.2-6 17.4-.8 5.8-.6 11.6.4 17.4.2 1.2 0 2.8.7 3.5.7.8 2.3.7 3.5 1 2.6.5 5.2 1.1 7.8 1.4 2.6.3 5.2.3 7.8.6 2.6.3 5-.4 7.5-.7 4-.4 7.8-1.8 11.5-3.5 3.1-1.5 5.9-3.4 8.6-5.5.8-.6 1.6-1.3 2.3-2 .8-.7 1.5-1.5 2.2-2.3l2.1-2.4c.2-.2.4-.5.6-.7.8-1 1.5-2 2.2-3.1.6-.8 1.1-1.6 1.6-2.4 4.2-6.8 6.8-13.8 8.6-20.1.3-1.1.6-2.2.8-3.2.1-.4.1-.7.2-1.1z"/><path class="st8" d="M163.6 586.7c-1.4-4.1-5.2-16.5 1.2-26.2 1.6-2.5 3.4-4 5.5-5.9 4.2-3.6 11.2-8.6 21.9-11.8 0 0-.6 12-7.5 18.3s-17.6 10.5-21.1 25.6zm270.5-55.6h-38.4l58.4 90.7v63.1h34.6V614z"/><path class="st0" d="M548.8 550.6c.7-7.5 1-14.8.5-22.2-.8.2-1.3.3-1.8.4-2.2.4-4.5.6-6.7 1.2-4.8 1.3-9.7 2.6-14.5 4-3.2 1-6.4 2-9.4 3.4-4.2 2-8.4 4.1-12.3 6.5-3.1 1.9-5.9 4.4-8.6 6.8-4.6 4.2-8 9.2-10.5 15-2.6 6-3.7 12.2-3.7 18.7.1 6.1 1.1 12 2.9 17.8.4 1.2.4 2.8 1.3 3.5.8.7 2.4.4 3.7.5 2.7.2 5.5.4 8.2.3 2.7 0 5.4-.4 8.1-.6 2.7-.1 5.1-1.2 7.6-1.8 4-1 7.8-2.9 11.3-5.3 3-2 5.6-4.3 8-6.9l2.1-2.4c.7-.8 1.3-1.8 1.9-2.7.6-.9 1.2-1.9 1.8-2.8.2-.3.3-.5.5-.8.7-1.1 1.3-2.3 1.9-3.5.5-.9.9-1.8 1.3-2.7 3.3-7.6 5-15.2 5.9-21.9.1-1.2.3-2.3.4-3.5 0-.3 0-.7.1-1z"/><path class="st8" d="M494 598.3c-2.1-4-7.7-16.1-2.5-27.1 1.3-2.8 2.9-4.6 4.8-6.8 3.8-4.3 10.2-10.4 20.7-15.3 0 0 1.1 12.4-5.1 19.9-6.2 7.5-16.6 13.3-17.9 29.3zm-19.6-71.6c-.6.6-10.8 10.3-8.4 22.1.3 1.7 1.6 8.2 7.3 12.3 1.6 1.2 3.1 1.8 4.2 2.2 0 0 10.8-9.3 7.9-19.9-2.9-10.7-11-16.7-11-16.7zm56.7 101.7c-.3-.8-5.8-13.8-17.7-15.7-1.7-.3-8.2-1.4-14.1 2.5-1.6 1.1-2.8 2.3-3.5 3.2 0 0 4.9 13.4 15.8 14.4 11 1 19.5-4.4 19.5-4.4z"/></svg>