<svg id="Capa_1" enable-background="new 0 0 509.223 509.223" height="512" viewBox="0 0 509.223 509.223" width="512" xmlns="http://www.w3.org/2000/svg"><g><path d="m30.286 314.186h15v15h-15z"/><path d="m150.286 239.439h15v15h-15z"/><path d="m30.286 178.918h15v15h-15z"/><path d="m180.286 239.439h15v15h-15z"/><path d="m210.286 239.439h15v15h-15z"/><path d="m322.868 119.29h-15v29.486h-14.922v-59.486h14.922v15h15v-30h-44.922v66.642l-90.283-67.211-95.505 75.056h-91.872v135h30v15.409h15v-19.451l142.499-111.985 142.501 112.048v183.731h-285v-119.343h-15v119.343h-14.999v45.694h345.188v-45.694h-15.189v-179.753h30v-135h-52.418zm22.607 374.933h-315.188v-15.694h314.999zm14.811-225.447h-19.748l-152.75-120.107-152.834 120.107h-19.668v-105h134.833v-15h-33.686l71.477-56.171 75.454 56.171h-38.244v15h135.167v105z"/><path d="m30.286 208.417h15v30.668h-15z"/><path d="m133.977 320.95c0 18.592 9.656 40.873 23.304 54.406v28.195h60v-29.541c26.447-27.758 32.457-78.644-5.595-99.336-34.419-18.717-77.709 7.17-77.709 46.276zm52.639-37.638c19.014 0 35.349 14.784 37.405 33.638 2.033 18.646-8.376 38.396-21.74 50.714v20.889h-30v-19.837c-13.989-12.054-24.573-31.518-23.21-50.449 1.398-19.406 18.084-34.955 37.545-34.955z"/><path d="m157.786 419.228h60v15h-60z"/><path d="m458.705 50.23c-32.241-32.24-75.11-50.079-120.711-50.23l-.05 15c41.613.138 80.733 16.417 110.154 45.838 29.7 29.7 45.979 69.195 45.837 111.209l15 .051c.156-46.04-17.684-89.32-50.23-121.868z"/><path d="m338.003 46.87-.069 15c29.104.136 56.459 11.537 77.026 32.105 20.843 20.843 32.245 48.565 32.105 78.062l15 .07c.158-33.529-12.804-65.044-36.499-88.739-23.381-23.382-54.478-36.344-87.563-36.498z"/><path d="m338.027 93.733-.117 15c16.594.129 32.189 6.656 43.913 18.379 11.985 11.986 18.513 27.933 18.379 44.901l15 .117c.165-21.02-7.922-40.773-22.772-55.625-14.526-14.524-33.847-22.611-54.403-22.772z"/></g></svg>