<?xml version="1.0" encoding="utf-8"?>
<!-- Generator: Adobe Illustrator 20.1.0, SVG Export Plug-In . SVG Version: 6.00 Build 0)  -->
<svg version="1.1" id="katman_1" xmlns="http://www.w3.org/2000/svg" xmlns:xlink="http://www.w3.org/1999/xlink" x="0px" y="0px"
	 viewBox="0 0 595.3 841.9" style="enable-background:new 0 0 595.3 841.9;" xml:space="preserve">
<style type="text/css">
	.st0{fill:#328F03;}
	.st1{fill-rule:evenodd;clip-rule:evenodd;fill:#FFBA0D;}
	.st2{fill-rule:evenodd;clip-rule:evenodd;fill:#F9CB64;}
	.st3{fill:#FFFFFF;}
	.st4{fill:#D32624;}
	.st5{fill:#BE1622;}
	.st6{fill-rule:evenodd;clip-rule:evenodd;fill:#95C11F;}
	.st7{fill-rule:evenodd;clip-rule:evenodd;fill:#2F932A;}
	.st8{fill:#74C401;}
	.st9{fill:#308C03;}
</style>
<g>
	<g>
		<path class="st0" d="M209.4,717.4c0,10.3-8.2,18.2-19.2,18.2s-19.2-7.9-19.2-18.2s8.2-18.2,19.2-18.2S209.4,707.1,209.4,717.4z
			 M200.7,717.4c0-6-4.5-10.7-10.5-10.7s-10.5,4.7-10.5,10.7s4.5,10.7,10.5,10.7S200.7,723.4,200.7,717.4z"/>
		<path class="st0" d="M244.5,702.3v3.4c0,1.3-1.1,2.4-2.4,2.4c-0.1,0-0.3,0-0.4,0c-3.3,0-6,1.1-8.3,3.4c-1,1-1.5,2.3-1.5,3.6v17.4
			c0,1.3-1.1,2.3-2.4,2.3h-3.9c-1.3,0-2.4-1-2.4-2.3v-29.8c0-1.3,1.1-2.3,2.4-2.3h3.8c1.3,0,2.4,1,2.4,2.3v2.3l0,3
			c0,0.8,1.2,1.1,1.5,0.3l2.1-4.6c0.8-1.7,2.4-3,4.2-3.4c0.8-0.2,1.6-0.2,2.5-0.2h0C243.4,700,244.5,701,244.5,702.3z"/>
		<path class="st0" d="M289.3,703.3v32.3c0,10.6-7.3,16.8-18.4,16.8c-3.5,0-6.8-0.7-9.5-1.7c-1.3-0.5-2.1-1.7-2.1-3v-1.2
			c0-2.2,2.3-3.8,4.4-3c2.3,0.9,4.7,1.3,7,1.3c6,0,10-3.3,10-9.2v-2.2l-0.1-0.1c-2.3,1.6-5.7,2.6-9,2.6c-9.1,0-16.9-6.9-16.9-17.2
			c0-10.1,7.1-18.3,18.4-18.3c2.8,0,5.2,0.5,7.3,1.3c0.8,0.3,1.4,1,1.5,1.8l0.3,2.2c0.1,0.6,0.8,0.8,1.2,0.3l2.8-3.7
			c0.3-0.4,0.7-0.7,1.2-0.8C288.2,701.2,289.3,702.1,289.3,703.3z M280.6,711.7c0-1.4-0.9-2.6-2.2-3.1c-1.5-0.5-3.3-0.9-5.1-0.9
			c-6.3,0-10,4.7-10,10.4c0,6,4,10.5,10,10.5c1.8,0,3.7-0.4,5.3-1.1c1.2-0.5,1.9-1.7,1.9-3V711.7z"/>
		<path class="st0" d="M332.2,712.5v19.5c0,1.6-1.3,3-3,3c-1.6,0-2.9-1.2-3-2.8l-0.1-2.8c-0.1-0.6-0.9-0.7-1.2-0.2l-1.8,2.9
			c-1.1,1.8-2.9,3.1-5,3.5c-1,0.2-2,0.3-3.2,0.3c-2.8,0-5.7-0.6-8-2.3c-2.4-1.7-3.8-4.4-3.8-7.8c0-3.7,1.8-6.5,4.4-8.2
			c2.6-1.7,6.1-2.3,9.6-2.3c1.7,0,3.2,0.1,4.7,0.4c1,0.2,1.9-0.6,1.9-1.6c0-2.1-0.6-3.6-1.7-4.6c-1.3-1.1-3.2-1.6-5.8-1.6
			c-2.9,0-5.6,0.7-7.8,1.7c-1.2,0.5-2.5-0.3-2.5-1.6v-3.6c0-0.7,0.4-1.3,1-1.6c2.7-1.3,6.3-2.2,10.6-2.2c4.5,0,8.4,1,11,3.2
			C330.9,705.4,332.2,708.3,332.2,712.5z M323.8,725.3v-2.8c0-0.8-0.5-1.4-1.3-1.5c-1.3-0.2-2.8-0.4-4-0.4c-3.5,0-6.9,1.1-6.9,4.4
			c0,2.8,2.4,4.1,5.5,4.1c1.8,0,3.7-0.5,5.2-1.1C323.2,727.4,323.8,726.4,323.8,725.3L323.8,725.3z"/>
		<path class="st0" d="M380.1,713.1v18.5c0,1.8-1.5,3.2-3.2,3.2h-2.2c-1.8,0-3.2-1.4-3.2-3.2v-17c0-3.1-0.4-4.8-1.4-6
			c-1.1-1.3-2.7-1.9-4.7-1.9c-3.5,0-7.1,2-9.3,4.4v20.5c0,1.8-1.5,3.2-3.2,3.2h-2.2c-1.8,0-3.2-1.4-3.2-3.2v-28.5
			c0-1.8,1.5-3.2,3.2-3.2h2.2c1.8,0,3.2,1.4,3.2,3.2v0.6l0.1,0.1c3-2.6,7-4.6,11.7-4.6c3.8,0,7.1,1.3,9.4,3.7
			C379.1,705.1,380.1,708,380.1,713.1z"/>
		<path class="st0" d="M393.5,689.4c-0.6-3.5,2.2-6.5,5.8-6.3c2.4,0.2,4.5,2,4.9,4.3c0.6,3.5-2.2,6.5-5.8,6.3
			C396,693.5,393.9,691.7,393.5,689.4z M403.2,703.2v28.5c0,1.8-1.5,3.2-3.2,3.2h-2.2c-1.8,0-3.2-1.4-3.2-3.2v-28.5
			c0-1.8,1.5-3.2,3.2-3.2h2.2C401.7,700,403.2,701.4,403.2,703.2z"/>
		<path class="st0" d="M448.4,734.8H444c-1,0-1.9-0.4-2.5-1.2l-14.1-17.1l-0.1,0.1v15c0,1.8-1.4,3.2-3.2,3.2h-2.2
			c-1.8,0-3.2-1.4-3.2-3.2v-47.6c0-1.8,1.4-3.2,3.2-3.2h2.2c1.8,0,3.2,1.4,3.2,3.2v31l0.1,0.1l13.5-14.4c0.4-0.4,0.9-0.6,1.4-0.6h5
			c1.7,0,2.6,2,1.4,3.2l-11.7,12.3l13.1,15.5C451.3,732.6,450.3,734.8,448.4,734.8z"/>
	</g>
	<g>
		<g>
			<g>
				<path class="st1" d="M249,418.7c-16.9,16.9-44.4,16.9-61.4,0c-16.9-16.9-16.9-44.4,0-61.4c16.9-16.9,44.4-16.9,61.4,0
					C266,374.3,266,401.8,249,418.7L249,418.7z M249,418.7"/>
			</g>
			<g>
				<path class="st2" d="M175.2,392.7c5.5-51.1,80.8-51.1,86.3,0c2.7-25.6-17.3-48.1-43.1-48.1C192.4,344.7,172.4,367.1,175.2,392.7
					L175.2,392.7z M175.2,392.7"/>
			</g>
			<path class="st3" d="M224.9,411c10.5-3.5,16.8-10.7,17.9-20.1c0.2-1.6,1.5-2.8,3.1-2.8h0c1.9,0,3.3,1.6,3.1,3.5
				c-0.7,6.2-3.1,11.7-7.2,16.1c-3.7,4.1-8.9,7.2-14.9,9.2c-1.7,0.6-3.6-0.4-4-2.2v0C222.5,413.2,223.4,411.6,224.9,411z"/>
			<path class="st3" d="M243,378.7L243,378.7c0-1.7,1.4-3.1,3.1-3.1h0c1.7,0,3.1,1.4,3.1,3.1v0c0,1.7-1.4,3.1-3.1,3.1h0
				C244.4,381.8,243,380.4,243,378.7z"/>
			<path class="st3" d="M243,381.8"/>
			<g>
				<path class="st0" d="M178,388.1c0-8.1,2.3-15.7,6.7-22.3c0.9-1.4,0.6-3.2-0.7-4.2h0c-1.4-1.1-3.5-0.8-4.5,0.7
					c-5,7.5-7.7,16.1-7.8,25.1c-0.3,23.9,19.3,45.4,43.2,47.1c27.1,1.9,49.8-19.6,49.9-46.3c0.1-24.9-19.8-45.6-44.7-46.6
					c-11.7-0.5-22.8,3.4-31.7,10.8c-1.4,1.2-1.5,3.3-0.2,4.6l0,0c1.1,1.2,3,1.3,4.2,0.2c7.7-6.5,17.6-9.8,27.8-9.3
					c21.2,1,38.1,18.7,38.3,39.9c0.2,22.4-18,40.6-40.3,40.6C196.1,428.3,178,410.3,178,388.1L178,388.1z M178,388.1"/>
			</g>
			<path class="st4" d="M418.1,261.2c-3-1.3-3.9-5.2-1.6-7.6c4.7-4.9,9.3-9.8,14.2-14.8c1.9-2,1.7-5.2-0.5-7
				c-11.5-9.3-23.5-14.9-37.1-13.4c-12.2,1.3-24.1,5.3-36.8,8.8c-3,0.8-5.9-1.4-5.9-4.5v-16c0-2.7-2.3-4.9-5-4.7
				c-34.2,1.8-59.6,32.8-54.2,66.1c4.8,29.4,25.8,48.3,56.8,50.9c21.5,1.8,38.2,8.2,50.2,19.1c1.3,1.1,2.9,1.8,4.6,1.8h6.5
				c6,0,9.2-7.1,5.2-11.5c0,0-0.1-0.1-0.1-0.1c-0.6-0.7-1.2-1.3-1.8-2.1c-2.6-3-0.5-7.8,3.6-7.8l40.6,0c2.7,0,4.9-2.3,4.7-5
				C460,289,446.8,273.1,418.1,261.2z"/>
			<g>
				<path class="st0" d="M425.8,345.7h-15c-2.3,0-3.6,2.5-2.4,4.4c7.9,12.3,11.9,28.2,11.9,47.7c0,8,0.2,16.1-0.1,24.1
					c-1.3,34.1-26.6,62-60,67.4c-14,2.2-27.9,5.4-41.7,8.5c-4.7,1-9.1-2.6-9.1-7.4l0-65.7c0-5.5,5.7-9.1,10.7-6.8c0,0,0.1,0,0.1,0
					c11.8,5.1,27.5-1.1,28.5-13.5c1.5-19.1,0.8-38.3,0.6-57.7c-0.1-5.3-5.5-8.9-10.4-6.9c-6,2.5-9,6-10.3,11.9
					c-0.8,3.5,1.3,7.8,4.7,8.9c3.6,1.2,4.4,6.3,0.9,8.5c-5.3,3.2-10.3,6.2-15.2,9.1c-4.4,2.7-10.1,0.2-11.2-4.9
					c-11.7-52.2-57-77.8-101.6-71.4c-44.9,6.5-79.3,49.9-74.3,93.4c4.8,41,41.4,75.4,79.7,76.5c4.3,0.1,7.8-3.3,7.8-7.6l0-2.6
					c0-3.7-2.6-6.8-6.2-7.4c-4.1-0.7-8-1.4-11.7-2.4c-35.5-9.4-58.6-47.2-49.2-80.5c9.8-34.7,41.6-55.6,77.7-51.2
					c33.4,4.1,59.9,33.3,60.4,68.2c0.6,46.5,0.2,93,0.2,139.5c0,4.4,0,12.5,0,17.2c0,4.2,3.4,7.6,7.6,7.6h4.1c3.3,0,6.3-2.2,7.2-5.4
					c7.6-25.9,18.4-37.1,47.3-39.1c41.9-2.8,77.2-36,81.1-77.6c1.5-15.9,1-32.1,0.4-48.2c-0.5-12.8-4.1-24.4-10-35
					C427.7,346.2,426.8,345.7,425.8,345.7z"/>
				<circle class="st5" cx="376.2" cy="355.8" r="8.1"/>
			</g>
			<g>
				<g>
					<g>
						<path class="st6" d="M176.5,350c-5.9,6.5-15.8,9.9-26.2,8c-8.7-1.6-17-6.9-21-15c-0.9-1.9-0.9-1.6,0.5-3
							c6-5.6,15.2-8.4,24.9-6.6c0.9,0.2,1.9,0.4,2.8,0.6c-0.4-0.9-0.8-1.7-1.1-2.6c-3.3-9.3-2.1-18.9,2.5-25.7
							c1.2-1.7,0.9-1.6,2.9-1c7.9,2.4,14.9,9,18.2,18.3C183.7,332.9,182,343.2,176.5,350L176.5,350z M176.5,350"/>
					</g>
				</g>
				<g>
					<path class="st7" d="M174.4,348.2c-5.9,6.5-15.8,9.9-26.2,8c-4.8-0.9-9.5-2.9-13.4-5.9c4.2,4,9.8,6.7,15.5,7.7
						c10.4,1.9,20.3-1.5,26.2-8c5.5-6.8,7.2-17.2,3.6-27.1c-2.1-5.9-5.7-10.7-10.1-14c3.4,3.2,6.2,7.3,7.9,12.2
						C181.5,331,179.8,341.4,174.4,348.2L174.4,348.2z M174.4,348.2"/>
				</g>
				<g>
					<path class="st6" d="M176.5,350c-10,3.2-22.2,0.8-31.9-7.4c-9-7.6-13.4-18.3-12.7-28.1c0.2-2.4,0-2.2,2.3-2.7
						c9.5-2.3,20.8,0.4,29.8,8C173.7,328,178.1,339.7,176.5,350L176.5,350z M176.5,350"/>
				</g>
				<g>
					<path class="st7" d="M164.1,319.8c-9-7.6-20.2-10.3-29.8-8c-2.2,0.5-2.2,0.3-2.3,2.3c0.1,0,0.3-0.1,0.4-0.1
						c9.5-2.3,20.8,0.4,29.8,8c9.1,7.7,13.6,18.7,12.7,28.6c0.5-0.1,1.1-0.3,1.6-0.5C178.1,339.7,173.7,328,164.1,319.8L164.1,319.8
						z M164.1,319.8"/>
				</g>
				<g>
					<path class="st0" d="M176.9,350.9c-3,3.2-6.9,5.6-11.4,7c-4.5,1.4-9.5,1.8-14.6,1c-0.5-0.1-0.8-0.5-0.7-1
						c0.1-0.5,0.5-0.8,1-0.7c4.9,0.8,9.6,0.4,13.8-0.9c3.2-1,6.1-2.6,8.6-4.6c-2,0.4-4.1,0.6-6.2,0.6l-1.2,0.9
						c-0.4,0.3-0.9,0.2-1.2-0.2c-0.2-0.2-0.2-0.5-0.1-0.8c-1.6-0.1-3.1-0.4-4.7-0.8c-0.4-0.1-0.7-0.2-1.1-0.3l-2.7,1.9
						c-0.4,0.3-0.9,0.2-1.2-0.2c-0.3-0.4-0.2-0.9,0.2-1.2l1.6-1.1c-1.5-0.5-2.9-1.1-4.4-1.8l-4.2,2.9c-0.4,0.3-0.9,0.2-1.2-0.2
						c-0.3-0.4-0.2-0.9,0.2-1.2l3.4-2.3c-1.2-0.7-2.4-1.4-3.6-2.2l-4.9,3.2c-0.4,0.3-0.9,0.2-1.2-0.2c-0.3-0.4-0.2-0.9,0.2-1.2
						l3.3-2.3l-8.1-1.5c-0.5-0.1-0.8-0.5-0.7-1c0.1-0.5,0.5-0.8,1-0.7l7.4,1.3c-2.5-2.2-4.7-4.6-6.5-7.1c-1.5,0.7-2.9,1.4-4.2,2.3
						c-1.3,0.9-2.5,1.9-3.6,3.1c1.4,3.3,3.7,6.4,6.6,9c3,2.6,6.8,4.7,11,5.9c0.5,0.1,0.7,0.6,0.6,1.1c-0.1,0.5-0.6,0.7-1.1,0.6
						c-4.5-1.3-8.4-3.5-11.6-6.3c-3.3-2.9-5.8-6.3-7.3-10.1c-0.1-0.3,0-0.7,0.2-0.9c1.3-1.4,2.7-2.6,4.2-3.7
						c1.3-0.9,2.7-1.7,4.2-2.4c-1.2-1.8-2.1-3.7-2.9-5.7c-2.2-5.5-3-11.2-2.2-16.6c0.1-0.3,0.3-0.6,0.6-0.7c1.6-0.5,3.2-0.9,4.8-1.1
						c1.7-0.2,3.4-0.3,5.1-0.3c0.5,0,0.9,0.4,0.8,0.9c0,0.5-0.4,0.9-0.9,0.9c-1.6,0-3.2,0-4.8,0.3c-1.4,0.2-2.7,0.5-4,0.9
						c-0.7,4.9,0.1,10.2,2.2,15.2c2.1,5,5.5,9.8,10.1,13.7c4.4,3.7,9.5,6.4,15.1,7.7c4.7,1.1,9.6,1.2,14.3,0l-4-3.4l-6.9,0.6
						c-0.5,0-0.9-0.3-0.9-0.8c0-0.5,0.3-0.9,0.8-0.9l5.2-0.4l-5.5-4.7l-9.7,0.8c-0.5,0-0.9-0.3-0.9-0.8c0-0.5,0.3-0.9,0.8-0.9
						l7.9-0.6l-5.5-4.7l-9.7,0.8c-0.5,0-0.9-0.3-0.9-0.8c0-0.5,0.3-0.9,0.8-0.9l7.9-0.6l-5.5-4.7l-6.9,0.6c-0.5,0-0.9-0.3-0.9-0.8
						c0-0.5,0.3-0.9,0.8-0.9l5.2-0.4l-7.8-6.6c-0.4-0.3-0.4-0.9-0.1-1.2c0.3-0.4,0.9-0.4,1.2-0.1l7.8,6.6l-0.4-5.2
						c0-0.5,0.3-0.9,0.8-0.9c0.5,0,0.9,0.3,0.9,0.8l0.6,6.9l5.5,4.7l-0.6-7.9c0-0.5,0.3-0.9,0.8-0.9c0.5,0,0.9,0.3,0.9,0.8l0.8,9.7
						l5.5,4.7l-0.6-7.9c0-0.5,0.3-0.9,0.8-0.9c0.5,0,0.9,0.3,0.9,0.8l0.8,9.7l5.5,4.7l-0.4-5.2c0-0.5,0.3-0.9,0.8-0.9
						c0.5,0,0.9,0.3,0.9,0.8l0.6,6.9l4,3.4c0.4-4.8-0.4-9.7-2.3-14.1c-2.2-5.3-5.7-10-10.1-13.7c-5-4.3-11.2-7.2-17.7-8.2
						c-0.5-0.1-0.8-0.5-0.7-1c0.1-0.5,0.5-0.8,1-0.7c3,0.4,5.9,1.3,8.8,2.5c0.4-1.6,1-3.1,1.7-4.5c0.8-1.7,1.8-3.4,3-4.8
						c0.2-0.3,0.5-0.4,0.9-0.3c1.6,0.3,3.2,0.9,4.8,1.6c1.6,0.7,3.1,1.5,4.5,2.6c0.4,0.3,0.5,0.8,0.2,1.2c-0.3,0.4-0.8,0.5-1.2,0.2
						c-1.3-0.9-2.7-1.7-4.2-2.4c-1.3-0.6-2.6-1-3.9-1.3c-0.9,1.2-1.8,2.6-2.4,4c-0.7,1.4-1.2,2.9-1.6,4.5c2.8,1.4,5.6,3.1,8.1,5.3
						L162,312c-0.2-0.5,0.1-1,0.5-1.1c0.5-0.2,1,0.1,1.1,0.5l2.8,7.7l1.7-3.6c0.2-0.4,0.7-0.6,1.2-0.4c0.4,0.2,0.6,0.7,0.4,1.2
						l-2.5,5.2c0.1,0.2,2.4,2.8,2.8,3.3l1.8-3.7c0.2-0.4,0.7-0.6,1.2-0.4c0.4,0.2,0.6,0.7,0.4,1.2l-2.2,4.6c0.9,1.3,1.8,2.7,2.5,4
						l0.8-1.8c0.2-0.4,0.7-0.6,1.2-0.4c0.4,0.2,0.6,0.7,0.4,1.2l-1.4,3c0.2,0.3,0.3,0.7,0.5,1c0.6,1.5,1.1,3,1.5,4.5
						c0.2-0.1,0.5-0.1,0.8,0c0.4,0.2,0.6,0.7,0.4,1.2l-0.7,1.4c0.4,2.1,0.5,4.2,0.4,6.2c1.6-2.8,2.7-6,3.2-9.5
						c0.9-7.1-0.9-14.5-4.7-20.5c-1.3-2-2.8-3.8-4.5-5.4c-0.4-0.3-0.4-0.9,0-1.2c0.3-0.4,0.9-0.4,1.2,0c1.8,1.7,3.4,3.6,4.8,5.7
						c4.1,6.3,6,14.2,5,21.7c-0.6,4.7-2.4,9.1-5.1,12.6C177.3,350.5,177.1,350.7,176.9,350.9L176.9,350.9z M176.9,350.9"/>
					<path class="st0" d="M178,315.6c-1.4-2.1-3-4.1-4.8-5.8c-0.3-0.2-0.6-0.4-1-0.4c-0.4,0-0.7,0.2-0.9,0.4
						c-0.5,0.5-0.5,1.4,0.1,1.9c1.7,1.6,3.2,3.3,4.4,5.3c3.9,6,5.6,13.4,4.7,20.2c-0.4,2.8-1.1,5.3-2.3,7.7c0-1.4-0.2-2.9-0.4-4.3
						l0.6-1.2c0.3-0.7,0-1.5-0.6-1.8c-0.2-0.1-0.4-0.1-0.6-0.1c-0.4-1.4-0.9-2.8-1.4-4.1c-0.1-0.3-0.2-0.6-0.4-0.9l1.3-2.8
						c0.3-0.7,0-1.5-0.6-1.8c-0.7-0.3-1.5,0-1.8,0.6l-0.4,0.9c-0.6-1.1-1.2-2.1-1.9-3.1l2.1-4.3c0.2-0.3,0.2-0.7,0.1-1
						c-0.1-0.3-0.4-0.6-0.7-0.8c-0.3-0.2-0.7-0.2-1-0.1c-0.3,0.1-0.6,0.4-0.8,0.7L170,324c-0.2-0.2-0.4-0.5-0.7-0.8
						c-0.5-0.6-1.3-1.4-1.5-1.8l2.4-5c0.2-0.3,0.2-0.7,0.1-1c-0.1-0.3-0.4-0.6-0.7-0.8c-0.7-0.3-1.5,0-1.8,0.6l-1.2,2.6l-2.4-6.7
						c-0.2-0.7-1-1.1-1.7-0.8c-0.7,0.2-1,1-0.8,1.7l2,5.5c-2.1-1.6-4.3-3-6.6-4.1c0.4-1.4,0.9-2.8,1.5-4.1c0.6-1.3,1.4-2.6,2.2-3.7
						c1.2,0.3,2.4,0.7,3.5,1.2c1.4,0.6,2.8,1.4,4.1,2.3c0.6,0.4,1.4,0.3,1.9-0.3c0.2-0.3,0.3-0.6,0.2-1c-0.1-0.3-0.3-0.7-0.5-0.9
						c-1.5-1-3-1.9-4.6-2.6c-1.6-0.7-3.2-1.2-4.9-1.6c-0.5-0.1-1,0.1-1.3,0.5c-1.2,1.5-2.2,3.1-3.1,4.9c-0.6,1.3-1.1,2.7-1.5,4.1
						c-2.8-1.1-5.6-1.9-8.4-2.3c-0.4-0.1-0.7,0-1,0.2c-0.3,0.2-0.5,0.5-0.5,0.9c-0.1,0.7,0.4,1.4,1.1,1.5c6.3,0.9,12.4,3.7,17.5,8.1
						c4.4,3.7,7.8,8.4,9.9,13.5c1.8,4.3,2.5,8.7,2.3,13l-3.2-2.7l-0.5-6.7c0-0.4-0.2-0.7-0.5-0.9c-0.3-0.2-0.6-0.3-1-0.3
						c-0.7,0.1-1.3,0.7-1.2,1.4l0.3,4.1l-4.5-3.8l-0.8-9.5c-0.1-0.7-0.7-1.3-1.4-1.2c-0.4,0-0.7,0.2-0.9,0.5c-0.2,0.3-0.3,0.6-0.3,1
						l0.6,6.8l-4.5-3.8l-0.8-9.5c-0.1-0.7-0.7-1.3-1.4-1.2c-0.7,0.1-1.3,0.7-1.2,1.4l0.6,6.8l-4.5-3.8l-0.5-6.7
						c-0.1-0.7-0.7-1.3-1.4-1.2c-0.7,0.1-1.3,0.7-1.2,1.4l0.3,4.1l-7-5.9c-0.3-0.2-0.6-0.3-1-0.3c-0.4,0-0.7,0.2-0.9,0.5
						c-0.2,0.3-0.3,0.6-0.3,1c0,0.4,0.2,0.7,0.5,0.9l7,5.9l-4.1,0.3c-0.7,0.1-1.3,0.7-1.2,1.4c0,0.4,0.2,0.7,0.5,0.9
						c0.3,0.2,0.6,0.3,1,0.3l6.7-0.5l4.5,3.8l-6.8,0.6c-0.7,0.1-1.3,0.7-1.2,1.4c0.1,0.7,0.7,1.3,1.4,1.2l9.5-0.8l4.5,3.8l-6.8,0.6
						c-0.4,0-0.7,0.2-0.9,0.5c-0.2,0.3-0.3,0.6-0.3,1c0.1,0.7,0.7,1.3,1.4,1.2l9.5-0.8l4.5,3.8l-4.1,0.3c-0.7,0.1-1.3,0.7-1.2,1.4
						c0,0.4,0.2,0.7,0.5,0.9c0.3,0.2,0.6,0.3,1,0.3l6.7-0.5l3.2,2.7c-4.2,0.9-8.7,0.9-13.2-0.2c-5.4-1.2-10.5-3.9-14.9-7.6
						c-4.4-3.7-7.8-8.4-9.9-13.5c-2-4.8-2.7-9.9-2.2-14.6c1.2-0.3,2.4-0.6,3.7-0.8c1.5-0.2,3.1-0.3,4.7-0.3c0.7,0,1.3-0.6,1.4-1.3
						c0-0.4-0.1-0.7-0.4-1c-0.2-0.3-0.6-0.4-0.9-0.4c-1.7,0-3.5,0.1-5.2,0.3c-1.7,0.2-3.3,0.6-4.9,1.1c-0.5,0.1-0.9,0.6-0.9,1.1
						c-0.8,5.5-0.1,11.3,2.2,16.9c0.8,1.8,1.7,3.6,2.7,5.3c-1.3,0.6-2.6,1.4-3.8,2.2c-1.6,1.1-3,2.4-4.3,3.8
						c-0.4,0.4-0.5,0.9-0.3,1.4c1.5,3.8,4.1,7.4,7.4,10.3c3.3,2.9,7.4,5.1,11.8,6.4c0.7,0.2,1.4-0.2,1.7-0.9
						c0.2-0.7-0.2-1.4-0.9-1.6c-4-1.2-7.8-3.2-10.8-5.8c-2.8-2.4-5-5.4-6.4-8.5c1-1,2.1-2,3.3-2.8c1.2-0.8,2.4-1.5,3.8-2.1
						c1.5,2.1,3.2,4,5.2,5.8l-5.8-1.1c-0.3-0.1-0.7,0-1,0.2c-0.3,0.2-0.5,0.5-0.6,0.9c-0.1,0.7,0.3,1.4,1.1,1.6l7,1.3l-2.4,1.7
						c-0.3,0.2-0.5,0.5-0.6,0.9c-0.1,0.4,0,0.7,0.2,1c0.4,0.6,1.2,0.8,1.8,0.3l4.6-3.1c0.9,0.6,1.8,1.2,2.7,1.7l-2.8,1.9
						c-0.3,0.2-0.5,0.5-0.6,0.9c-0.1,0.4,0,0.7,0.2,1c0.4,0.6,1.3,0.8,1.8,0.3l3.9-2.7c1.1,0.5,2.2,1,3.4,1.4l-0.9,0.6
						c-0.6,0.4-0.7,1.2-0.3,1.8c0.4,0.6,1.2,0.8,1.9,0.3l2.6-1.8c0.3,0.1,0.6,0.2,0.9,0.2c1.4,0.3,2.9,0.6,4.3,0.7
						c0,0.2,0.1,0.4,0.2,0.6c0.4,0.6,1.2,0.8,1.9,0.3l1.1-0.8c1.5,0,2.9-0.1,4.3-0.3c-2.1,1.5-4.4,2.6-7,3.4
						c-4.3,1.3-9,1.7-13.6,0.9c-0.4-0.1-0.7,0-1,0.2c-0.3,0.2-0.5,0.5-0.5,0.9c-0.1,0.4,0,0.7,0.2,1c0.2,0.3,0.5,0.5,0.9,0.5
						c1.8,0.3,3.6,0.4,5.4,0.4c3.2,0,6.4-0.5,9.5-1.4c4.6-1.4,8.6-3.9,11.6-7.2c0,0,0,0,0,0c0.3-0.3,0.4-0.5,0.7-0.8
						c2.7-3.6,4.5-8,5.2-12.8C184.1,330.1,182.2,322.1,178,315.6z M182.2,337.5c-0.6,4.7-2.3,9-5,12.4c-0.2,0.3-0.4,0.5-0.6,0.7
						c-2.9,3.1-6.8,5.5-11.2,6.9c-4.5,1.4-9.5,1.8-14.4,1c-0.1,0-0.2-0.1-0.3-0.2c-0.1-0.1-0.1-0.2-0.1-0.3c0-0.1,0.1-0.2,0.2-0.3
						c0.1-0.1,0.2-0.1,0.2-0.1c0,0,0,0,0.1,0c4.8,0.8,9.6,0.5,14-0.9c3.3-1,6.2-2.6,8.7-4.7c0.2-0.1,0.2-0.4,0.1-0.5
						c-0.1-0.2-0.3-0.3-0.5-0.3c-2,0.4-4,0.6-6.1,0.6c-0.1,0-0.2,0-0.3,0.1l-1.2,0.9c-0.2,0.1-0.5,0.1-0.6-0.1
						c-0.1-0.1-0.1-0.2-0.1-0.4c0-0.1,0-0.3-0.1-0.4c-0.1-0.1-0.2-0.2-0.3-0.2c-1.6-0.1-3.1-0.4-4.6-0.7c-0.4-0.1-0.7-0.2-1.1-0.3
						c-0.1,0-0.3,0-0.4,0.1l-2.7,1.9c-0.2,0.1-0.5,0.1-0.6-0.1c-0.1-0.2-0.1-0.4,0.1-0.6l1.6-1.1c0.1-0.1,0.2-0.3,0.2-0.4
						c0-0.2-0.1-0.3-0.3-0.4c-1.5-0.5-2.9-1.1-4.3-1.8c-0.1-0.1-0.3-0.1-0.5,0l-4.2,2.9c-0.2,0.1-0.4,0.1-0.6-0.1
						c-0.1-0.1-0.1-0.2-0.1-0.3c0-0.1,0.1-0.2,0.2-0.3l3.4-2.3c0.1-0.1,0.2-0.2,0.2-0.4c0-0.2-0.1-0.3-0.2-0.4
						c-1.2-0.7-2.4-1.4-3.5-2.2c-0.2-0.1-0.4-0.1-0.5,0l-4.9,3.2c-0.2,0.1-0.5,0.1-0.6-0.1c-0.1-0.1-0.1-0.2-0.1-0.3
						c0-0.1,0.1-0.2,0.2-0.3l3.3-2.3c0.2-0.1,0.2-0.3,0.2-0.5c0-0.2-0.2-0.3-0.4-0.4l-8.1-1.5c-0.2,0-0.4-0.3-0.3-0.5
						c0-0.1,0.1-0.2,0.2-0.3c0.1-0.1,0.2-0.1,0.3-0.1l7.4,1.3c0.2,0,0.4-0.1,0.5-0.3c0.1-0.2,0-0.4-0.1-0.5
						c-2.4-2.1-4.6-4.5-6.4-7.1c-0.1-0.2-0.4-0.2-0.6-0.2c-1.5,0.7-2.9,1.5-4.3,2.4c-1.4,0.9-2.6,2-3.7,3.1
						c-0.1,0.1-0.2,0.3-0.1,0.5c1.4,3.4,3.7,6.5,6.7,9.1c3.1,2.7,7,4.8,11.2,6c0.2,0.1,0.3,0.3,0.3,0.5c-0.1,0.2-0.3,0.3-0.5,0.3
						c-4.3-1.2-8.2-3.4-11.5-6.2c-3.2-2.8-5.7-6.3-7.2-10c-0.1-0.2,0-0.3,0.1-0.5c1.2-1.3,2.6-2.6,4.2-3.6c1.3-0.9,2.7-1.7,4.1-2.3
						c0.1-0.1,0.2-0.2,0.2-0.3c0-0.1,0-0.3-0.1-0.4c-1.1-1.8-2.1-3.7-2.9-5.6c-2.2-5.4-3-11.1-2.2-16.4c0-0.2,0.1-0.3,0.3-0.3
						c1.5-0.5,3.1-0.9,4.8-1.1c1.6-0.2,3.3-0.3,5-0.3c0.1,0,0.2,0,0.3,0.1c0.1,0.1,0.1,0.2,0.1,0.3c0,0.2-0.2,0.4-0.4,0.4
						c-1.6,0-3.3,0-4.9,0.3c-1.4,0.2-2.8,0.5-4.1,0.9c-0.2,0.1-0.3,0.2-0.3,0.4c-0.7,5,0.1,10.3,2.2,15.4c2.2,5.2,5.7,10,10.2,13.9
						c4.5,3.8,9.8,6.5,15.3,7.8c4.9,1.2,10,1.1,14.5,0c0.2,0,0.3-0.2,0.3-0.3c0-0.2,0-0.3-0.1-0.4l-4-3.4c-0.1-0.1-0.2-0.1-0.3-0.1
						l-6.9,0.6c-0.1,0-0.2,0-0.3-0.1c-0.1-0.1-0.1-0.2-0.1-0.3c0-0.2,0.2-0.4,0.4-0.5l5.2-0.4c0.2,0,0.3-0.1,0.4-0.3
						c0.1-0.2,0-0.4-0.1-0.5l-5.5-4.7c-0.1-0.1-0.2-0.1-0.3-0.1l-9.7,0.8c-0.2,0-0.4-0.2-0.5-0.4c0-0.1,0-0.2,0.1-0.3
						c0.1-0.1,0.2-0.1,0.3-0.1l7.9-0.6c0.2,0,0.3-0.1,0.4-0.3c0.1-0.2,0-0.4-0.1-0.5l-5.5-4.7c-0.1-0.1-0.2-0.1-0.3-0.1l-9.7,0.8
						c-0.2,0-0.4-0.2-0.5-0.4c0-0.2,0.2-0.4,0.4-0.5l7.9-0.6c0.2,0,0.3-0.1,0.4-0.3c0.1-0.2,0-0.4-0.1-0.5l-5.5-4.7
						c-0.1-0.1-0.2-0.1-0.3-0.1l-6.9,0.6c-0.1,0-0.2,0-0.3-0.1c-0.1-0.1-0.1-0.2-0.1-0.3c0-0.2,0.2-0.4,0.4-0.5l5.2-0.4
						c0.2,0,0.3-0.1,0.4-0.3c0.1-0.2,0-0.4-0.1-0.5l-7.8-6.6c-0.1-0.1-0.1-0.2-0.1-0.3c0-0.1,0-0.2,0.1-0.3c0.1-0.1,0.2-0.1,0.3-0.1
						c0.1,0,0.2,0,0.3,0.1l7.8,6.6c0.1,0.1,0.3,0.1,0.5,0.1c0.2-0.1,0.3-0.3,0.2-0.4l-0.4-5.2c0-0.2,0.2-0.4,0.4-0.5
						c0.2,0,0.4,0.2,0.5,0.4l0.6,6.9c0,0.1,0.1,0.2,0.2,0.3l5.5,4.7c0.1,0.1,0.3,0.1,0.5,0.1c0.2-0.1,0.3-0.3,0.2-0.4l-0.6-7.9
						c0-0.2,0.2-0.4,0.4-0.5c0.2,0,0.4,0.2,0.5,0.4l0.8,9.7c0,0.1,0.1,0.2,0.2,0.3l5.5,4.7c0.1,0.1,0.3,0.1,0.5,0.1
						c0.2-0.1,0.3-0.3,0.2-0.4l-0.6-7.9c0-0.1,0-0.2,0.1-0.3c0.1-0.1,0.2-0.1,0.3-0.1c0.2,0,0.4,0.2,0.5,0.4l0.8,9.7
						c0,0.1,0.1,0.2,0.2,0.3l5.5,4.7c0.1,0.1,0.3,0.1,0.5,0.1c0.2-0.1,0.3-0.3,0.2-0.4l-0.4-5.2c0-0.2,0.2-0.4,0.4-0.5
						c0.1,0,0.2,0,0.3,0.1c0.1,0.1,0.1,0.2,0.1,0.3l0.6,6.9c0,0.1,0.1,0.2,0.2,0.3l4,3.4c0.1,0.1,0.3,0.1,0.5,0.1
						c0.2-0.1,0.3-0.2,0.3-0.4c0.4-4.7-0.4-9.6-2.3-14.3c-2.2-5.2-5.7-10-10.2-13.9c-5.3-4.5-11.5-7.4-18-8.3
						c-0.2,0-0.4-0.2-0.4-0.5c0-0.1,0.1-0.2,0.2-0.3c0.1-0.1,0.2-0.1,0.3-0.1c2.9,0.4,5.9,1.3,8.7,2.5c0.1,0.1,0.3,0,0.4,0
						c0.1-0.1,0.2-0.2,0.2-0.3c0.4-1.6,1-3.1,1.6-4.5c0.8-1.7,1.8-3.3,3-4.7c0.1-0.1,0.3-0.2,0.4-0.1c1.6,0.3,3.2,0.9,4.7,1.5
						c1.5,0.7,3,1.5,4.4,2.5c0.1,0.1,0.2,0.2,0.2,0.3c0,0.1,0,0.2-0.1,0.3c-0.1,0.2-0.4,0.2-0.6,0.1c-1.4-1-2.8-1.8-4.3-2.4
						c-1.3-0.6-2.6-1-4-1.3c-0.2,0-0.4,0-0.5,0.2c-1,1.3-1.8,2.6-2.5,4.1c-0.7,1.5-1.3,3-1.7,4.6c-0.1,0.2,0,0.4,0.2,0.5
						c2.8,1.4,5.5,3.1,8,5.2c0.2,0.1,0.4,0.1,0.6,0c0.2-0.1,0.2-0.3,0.2-0.5l-2.5-7.1c-0.1-0.2,0-0.5,0.3-0.5c0.2-0.1,0.5,0,0.5,0.2
						l2.8,7.7c0.1,0.2,0.2,0.3,0.4,0.3c0.2,0,0.4-0.1,0.4-0.3l1.7-3.6c0.1-0.2,0.4-0.3,0.6-0.2c0.1,0,0.2,0.1,0.2,0.2
						c0,0.1,0,0.2,0,0.3l-2.5,5.2c-0.1,0.1-0.1,0.2,0,0.3c0.1,0.2,0.1,0.3,1.8,2.2c0.5,0.6,1,1.1,1.1,1.3c0.1,0.1,0.2,0.2,0.4,0.2
						c0.2,0,0.3-0.1,0.4-0.3l1.8-3.7c0-0.1,0.1-0.2,0.2-0.2c0.1,0,0.2,0,0.3,0c0.1,0,0.2,0.1,0.2,0.2c0,0.1,0,0.2,0,0.3l-2.2,4.6
						c-0.1,0.1-0.1,0.3,0,0.5c0.9,1.3,1.7,2.6,2.4,4c0.1,0.2,0.2,0.2,0.4,0.2c0.2,0,0.3-0.1,0.4-0.3l0.8-1.7
						c0.1-0.2,0.4-0.3,0.6-0.2c0.2,0.1,0.3,0.4,0.2,0.6l-1.4,3c-0.1,0.1-0.1,0.3,0,0.4c0.2,0.3,0.3,0.7,0.4,1c0.6,1.5,1.1,3,1.5,4.5
						c0,0.1,0.1,0.2,0.3,0.3c0.1,0.1,0.3,0.1,0.4,0c0.1-0.1,0.3-0.1,0.4,0c0.2,0.1,0.3,0.4,0.2,0.6l-0.7,1.4c0,0.1-0.1,0.2,0,0.3
						c0.4,2.1,0.5,4.1,0.4,6.1c0,0.2,0.1,0.4,0.3,0.5c0.2,0.1,0.4,0,0.5-0.2c1.7-2.9,2.8-6.1,3.2-9.6c0.9-7.1-0.8-14.7-4.8-20.8
						c-1.3-2-2.9-3.9-4.6-5.5c-0.2-0.2-0.2-0.4,0-0.6c0.1-0.1,0.2-0.1,0.3-0.1c0.1,0,0.2,0,0.3,0.1c1.8,1.7,3.4,3.6,4.7,5.6
						C181.3,322.4,183.1,330.2,182.2,337.5z"/>
				</g>
			</g>
		</g>
	</g>
	<g>
		<path class="st0" d="M261.4,531.2V636c0,0,13.1-22,23.6-21.5c0,0,4.2-21.5,11-26.2v-26.2h59.5c10.5,0,19.1-8.5,19.1-19.1v-11.9
			H261.4z"/>
		<path class="st8" d="M362.3,595.6c-25.5-12.9-49.7-13.1-60.1-5.3c-7.9,5.9-11.8,13.8-11.8,13.8c-2.3,4.7-3.2,8.9-3.6,11.8
			c-1.5,1-3.9,2.8-6.6,5.3c-10.5,9.9-20,27.3-16.1,44.7c0.7,3.3,1.4,6.5,3.9,9.9c0,0,4.5,9.2,27.1,9.2h57.3c5.7,0,11.2-1.8,15.8-5.1
			c3.8-2.8,7.3-7.1,7.8-13.1v-13.4h-73c-4,0-7.3-3.3-7.3-7.3v-23.2c0,0,18.5,12.7,39.5,0.2C356.1,610.5,362.3,595.6,362.3,595.6z"/>
		<path class="st9" d="M297.7,611.5c1.8-3.9,7.6-15.5,19-18.1c2.9-0.7,5.3-0.6,8.1-0.4c5.5,0.3,14,1.5,24,6.5c0,0-8.7,8.3-18.1,8.1
			C321.3,607.4,310.6,603,297.7,611.5z"/>
		<path class="st8" d="M236.4,608c-1,3-2.8,9.6-0.3,16.8c0.7,1.9,1.7,4.8,4.4,7.4c4.8,4.6,11,4.6,12.7,4.5c0,0,5.9-11,0-18.5
			C247.3,610.7,236.4,608,236.4,608z"/>
	</g>
	<g>
		<g>
			<path class="st3" d="M218.5,660c-0.2-0.4-0.3-0.9-0.6-1.6c0.7,0.1,1.1,0.1,1.5,0.1c-0.1,0.5-0.2,1-0.4,1.5
				C218.8,660.1,218.6,660,218.5,660z"/>
			<path class="st3" d="M213.5,658.9c0.7,0.3,1.5,0.6,2.2,0.8c0,0.1-0.1,0.3-0.1,0.4c-0.8-0.2-1.5-0.3-2.3-0.5
				C213.3,659.4,213.4,659.1,213.5,658.9z"/>
		</g>
		<polygon class="st8" points="237.6,679.4 176.8,600.3 138.1,600.3 138.1,531.2 105,531.2 105,679.4 138.1,679.4 138.1,603.5 
			195.7,679.4 		"/>
		<path class="st0" d="M222.4,548.5c1.7-7,3-14,3.5-21.2c-0.8,0-1.2,0.1-1.7,0.1c-2.2,0.1-4.4,0-6.6,0.2c-4.8,0.5-9.6,1.2-14.3,1.9
			c-3.2,0.5-6.4,1-9.5,1.9c-4.3,1.3-8.5,2.8-12.6,4.6c-3.2,1.4-6.2,3.4-9.1,5.3c-5,3.4-8.9,7.7-12.1,12.9c-3.3,5.4-5.2,11.2-6,17.4
			c-0.8,5.8-0.6,11.6,0.4,17.4c0.2,1.2,0,2.8,0.7,3.5c0.7,0.8,2.3,0.7,3.5,1c2.6,0.5,5.2,1.1,7.8,1.4c2.6,0.3,5.2,0.3,7.8,0.6
			c2.6,0.3,5-0.4,7.5-0.7c4-0.4,7.8-1.8,11.5-3.5c3.1-1.5,5.9-3.4,8.6-5.5l0,0c0,0,0,0,0,0c0.8-0.6,1.6-1.3,2.3-2
			c0.8-0.7,1.5-1.5,2.2-2.3c0,0,0,0,0,0c0.7-0.8,1.4-1.6,2.1-2.4c0.2-0.2,0.4-0.5,0.6-0.7c0,0,0,0,0,0c0.8-1,1.5-2,2.2-3.1
			c0.6-0.8,1.1-1.6,1.6-2.4c4.2-6.8,6.8-13.8,8.6-20.1c0,0,0,0,0,0c0.3-1.1,0.6-2.2,0.8-3.2C222.3,549.2,222.3,548.9,222.4,548.5
			L222.4,548.5z"/>
		<path class="st8" d="M163.6,586.7c-1.4-4.1-5.2-16.5,1.2-26.2c1.6-2.5,3.4-4,5.5-5.9c4.2-3.6,11.2-8.6,21.9-11.8
			c0,0-0.6,12-7.5,18.3S167.1,571.6,163.6,586.7z"/>
	</g>
	<g>
		<polygon class="st8" points="434.1,531.1 395.7,531.1 454.1,621.8 454.1,684.9 488.7,684.9 488.7,614 		"/>
		<g>
			<path class="st0" d="M548.8,550.6c0.7-7.5,1-14.8,0.5-22.2c-0.8,0.2-1.3,0.3-1.8,0.4c-2.2,0.4-4.5,0.6-6.7,1.2
				c-4.8,1.3-9.7,2.6-14.5,4c-3.2,1-6.4,2-9.4,3.4c-4.2,2-8.4,4.1-12.3,6.5c-3.1,1.9-5.9,4.4-8.6,6.8c-4.6,4.2-8,9.2-10.5,15
				c-2.6,6-3.7,12.2-3.7,18.7c0.1,6.1,1.1,12,2.9,17.8c0.4,1.2,0.4,2.8,1.3,3.5c0.8,0.7,2.4,0.4,3.7,0.5c2.7,0.2,5.5,0.4,8.2,0.3
				c2.7,0,5.4-0.4,8.1-0.6c2.7-0.1,5.1-1.2,7.6-1.8c4-1,7.8-2.9,11.3-5.3c3-2,5.6-4.3,8-6.9l0,0c0,0,0,0,0,0
				c0.7-0.8,1.4-1.6,2.1-2.4c0.7-0.8,1.3-1.8,1.9-2.7c0,0,0,0,0,0c0.6-0.9,1.2-1.9,1.8-2.8c0.2-0.3,0.3-0.5,0.5-0.8c0,0,0,0,0,0
				c0.7-1.1,1.3-2.3,1.9-3.5c0.5-0.9,0.9-1.8,1.3-2.7c3.3-7.6,5-15.2,5.9-21.9c0,0,0,0,0,0c0.1-1.2,0.3-2.3,0.4-3.5
				C548.7,551.3,548.7,550.9,548.8,550.6L548.8,550.6z"/>
			<path class="st8" d="M494,598.3c-2.1-4-7.7-16.1-2.5-27.1c1.3-2.8,2.9-4.6,4.8-6.8c3.8-4.3,10.2-10.4,20.7-15.3
				c0,0,1.1,12.4-5.1,19.9C505.7,576.5,495.3,582.3,494,598.3z"/>
		</g>
		<path class="st8" d="M474.4,526.7c-0.6,0.6-10.8,10.3-8.4,22.1c0.3,1.7,1.6,8.2,7.3,12.3c1.6,1.2,3.1,1.8,4.2,2.2
			c0,0,10.8-9.3,7.9-19.9C482.5,532.7,474.4,526.7,474.4,526.7z"/>
		<path class="st8" d="M531.1,628.4c-0.3-0.8-5.8-13.8-17.7-15.7c-1.7-0.3-8.2-1.4-14.1,2.5c-1.6,1.1-2.8,2.3-3.5,3.2
			c0,0,4.9,13.4,15.8,14.4C522.6,633.8,531.1,628.4,531.1,628.4z"/>
	</g>
</g>
</svg>
